<mxfile host="app.diagrams.net" modified="2023-10-02T16:17:36.538Z" agent="Mozilla/5.0 (X11; Linux x86_64; rv:109.0) Gecko/20100101 Firefox/114.0" etag="yhm1GkzJ8XOdamwnMK0S" version="22.0.0" type="github">
  <diagram name="PÃ¡gina-1" id="Ut7C_tntPOnnmSImgPk5">
    <mxGraphModel dx="2514" dy="885" grid="1" gridSize="10" guides="1" tooltips="1" connect="1" arrows="1" fold="1" page="1" pageScale="1" pageWidth="827" pageHeight="1169" math="0" shadow="1">
      <root>
        <mxCell id="0" />
        <mxCell id="1" parent="0" />
        <mxCell id="ZR8NJ3_Q2HgkCC634JVn-8" value="Compra" style="shape=rhombus;perimeter=rhombusPerimeter;whiteSpace=wrap;html=1;align=center;fillColor=#fff2cc;strokeColor=#d6b656;" vertex="1" parent="1">
          <mxGeometry x="-40" y="510" width="120" height="60" as="geometry" />
        </mxCell>
        <mxCell id="ZR8NJ3_Q2HgkCC634JVn-2" value="Cliente" style="whiteSpace=wrap;html=1;align=center;fillColor=#f8cecc;strokeColor=#b85450;" vertex="1" parent="1">
          <mxGeometry x="-450" y="520" width="100" height="40" as="geometry" />
        </mxCell>
        <mxCell id="ZR8NJ3_Q2HgkCC634JVn-3" value="Coches" style="whiteSpace=wrap;html=1;align=center;fillColor=#f8cecc;strokeColor=#b85450;" vertex="1" parent="1">
          <mxGeometry x="310" y="520" width="100" height="40" as="geometry" />
        </mxCell>
        <mxCell id="ZR8NJ3_Q2HgkCC634JVn-7" value="" style="endArrow=none;html=1;rounded=0;entryX=1;entryY=0.5;entryDx=0;entryDy=0;exitX=0;exitY=0.5;exitDx=0;exitDy=0;" edge="1" parent="1" source="ZR8NJ3_Q2HgkCC634JVn-8" target="ZR8NJ3_Q2HgkCC634JVn-2">
          <mxGeometry relative="1" as="geometry">
            <mxPoint x="430" y="500" as="sourcePoint" />
            <mxPoint x="590" y="500" as="targetPoint" />
          </mxGeometry>
        </mxCell>
        <mxCell id="ZR8NJ3_Q2HgkCC634JVn-9" value="" style="endArrow=none;html=1;rounded=0;entryX=1;entryY=0.5;entryDx=0;entryDy=0;exitX=0;exitY=0.5;exitDx=0;exitDy=0;" edge="1" parent="1" source="ZR8NJ3_Q2HgkCC634JVn-3" target="ZR8NJ3_Q2HgkCC634JVn-8">
          <mxGeometry relative="1" as="geometry">
            <mxPoint x="620" y="540" as="sourcePoint" />
            <mxPoint x="160" y="540" as="targetPoint" />
          </mxGeometry>
        </mxCell>
        <mxCell id="ZR8NJ3_Q2HgkCC634JVn-12" value="Nombre" style="ellipse;whiteSpace=wrap;html=1;align=center;fillColor=#dae8fc;strokeColor=#6c8ebf;" vertex="1" parent="1">
          <mxGeometry x="-550" y="650" width="100" height="40" as="geometry" />
        </mxCell>
        <mxCell id="ZR8NJ3_Q2HgkCC634JVn-24" value="NIF" style="ellipse;whiteSpace=wrap;html=1;align=center;fontStyle=4;fillColor=#dae8fc;strokeColor=#6c8ebf;" vertex="1" parent="1">
          <mxGeometry x="-640" y="600" width="100" height="40" as="geometry" />
        </mxCell>
        <mxCell id="ZR8NJ3_Q2HgkCC634JVn-27" value="Ciudad" style="ellipse;whiteSpace=wrap;html=1;align=center;dashed=1;fillColor=#dae8fc;strokeColor=#6c8ebf;" vertex="1" parent="1">
          <mxGeometry x="-340" y="650" width="100" height="40" as="geometry" />
        </mxCell>
        <mxCell id="ZR8NJ3_Q2HgkCC634JVn-29" value="Numero de Telefono " style="ellipse;whiteSpace=wrap;html=1;align=center;fillColor=#dae8fc;strokeColor=#6c8ebf;" vertex="1" parent="1">
          <mxGeometry x="-280" y="610" width="100" height="40" as="geometry" />
        </mxCell>
        <mxCell id="ZR8NJ3_Q2HgkCC634JVn-30" value="" style="endArrow=none;html=1;rounded=0;exitX=0.5;exitY=0;exitDx=0;exitDy=0;entryX=1;entryY=1;entryDx=0;entryDy=0;" edge="1" parent="1" source="ZR8NJ3_Q2HgkCC634JVn-29" target="ZR8NJ3_Q2HgkCC634JVn-2">
          <mxGeometry relative="1" as="geometry">
            <mxPoint x="440" y="470" as="sourcePoint" />
            <mxPoint x="600" y="470" as="targetPoint" />
          </mxGeometry>
        </mxCell>
        <mxCell id="ZR8NJ3_Q2HgkCC634JVn-31" value="" style="endArrow=none;html=1;rounded=0;exitX=0.5;exitY=0;exitDx=0;exitDy=0;entryX=0.75;entryY=1;entryDx=0;entryDy=0;" edge="1" parent="1" source="ZR8NJ3_Q2HgkCC634JVn-27" target="ZR8NJ3_Q2HgkCC634JVn-2">
          <mxGeometry relative="1" as="geometry">
            <mxPoint x="440" y="470" as="sourcePoint" />
            <mxPoint x="600" y="470" as="targetPoint" />
          </mxGeometry>
        </mxCell>
        <mxCell id="ZR8NJ3_Q2HgkCC634JVn-32" value="" style="endArrow=none;html=1;rounded=0;exitX=0.5;exitY=0;exitDx=0;exitDy=0;entryX=0.5;entryY=1;entryDx=0;entryDy=0;" edge="1" parent="1" source="ZR8NJ3_Q2HgkCC634JVn-91" target="ZR8NJ3_Q2HgkCC634JVn-2">
          <mxGeometry relative="1" as="geometry">
            <mxPoint x="-403" y="710" as="sourcePoint" />
            <mxPoint x="600" y="470" as="targetPoint" />
          </mxGeometry>
        </mxCell>
        <mxCell id="ZR8NJ3_Q2HgkCC634JVn-33" value="" style="endArrow=none;html=1;rounded=0;exitX=0.5;exitY=0;exitDx=0;exitDy=0;entryX=0.25;entryY=1;entryDx=0;entryDy=0;" edge="1" parent="1" source="ZR8NJ3_Q2HgkCC634JVn-12" target="ZR8NJ3_Q2HgkCC634JVn-2">
          <mxGeometry relative="1" as="geometry">
            <mxPoint x="440" y="470" as="sourcePoint" />
            <mxPoint x="600" y="470" as="targetPoint" />
          </mxGeometry>
        </mxCell>
        <mxCell id="ZR8NJ3_Q2HgkCC634JVn-35" value="" style="endArrow=none;html=1;rounded=0;exitX=0.5;exitY=0;exitDx=0;exitDy=0;entryX=0;entryY=1;entryDx=0;entryDy=0;" edge="1" parent="1" source="ZR8NJ3_Q2HgkCC634JVn-24" target="ZR8NJ3_Q2HgkCC634JVn-2">
          <mxGeometry relative="1" as="geometry">
            <mxPoint x="-560" y="620" as="sourcePoint" />
            <mxPoint x="600" y="470" as="targetPoint" />
          </mxGeometry>
        </mxCell>
        <mxCell id="ZR8NJ3_Q2HgkCC634JVn-37" value="Consesionario" style="whiteSpace=wrap;html=1;align=center;fillColor=#f8cecc;strokeColor=#b85450;" vertex="1" parent="1">
          <mxGeometry x="310" y="920" width="100" height="40" as="geometry" />
        </mxCell>
        <mxCell id="ZR8NJ3_Q2HgkCC634JVn-38" value="" style="endArrow=none;html=1;rounded=0;entryX=0.5;entryY=0;entryDx=0;entryDy=0;exitX=0.5;exitY=1;exitDx=0;exitDy=0;" edge="1" parent="1" source="ZR8NJ3_Q2HgkCC634JVn-40" target="ZR8NJ3_Q2HgkCC634JVn-37">
          <mxGeometry relative="1" as="geometry">
            <mxPoint x="110" y="530" as="sourcePoint" />
            <mxPoint x="270" y="530" as="targetPoint" />
          </mxGeometry>
        </mxCell>
        <mxCell id="ZR8NJ3_Q2HgkCC634JVn-41" value="" style="endArrow=none;html=1;rounded=0;entryX=0.5;entryY=0;entryDx=0;entryDy=0;exitX=0.5;exitY=1;exitDx=0;exitDy=0;" edge="1" parent="1" source="ZR8NJ3_Q2HgkCC634JVn-3" target="ZR8NJ3_Q2HgkCC634JVn-40">
          <mxGeometry relative="1" as="geometry">
            <mxPoint x="670" y="560" as="sourcePoint" />
            <mxPoint x="670" y="800" as="targetPoint" />
          </mxGeometry>
        </mxCell>
        <mxCell id="ZR8NJ3_Q2HgkCC634JVn-40" value="Revisa" style="shape=rhombus;perimeter=rhombusPerimeter;whiteSpace=wrap;html=1;align=center;fillColor=#fff2cc;strokeColor=#d6b656;" vertex="1" parent="1">
          <mxGeometry x="300" y="750" width="120" height="60" as="geometry" />
        </mxCell>
        <mxCell id="ZR8NJ3_Q2HgkCC634JVn-52" value="Marca" style="ellipse;whiteSpace=wrap;html=1;align=center;fillColor=#dae8fc;strokeColor=#6c8ebf;" vertex="1" parent="1">
          <mxGeometry x="680" y="610" width="100" height="40" as="geometry" />
        </mxCell>
        <mxCell id="ZR8NJ3_Q2HgkCC634JVn-53" value="Modelo" style="ellipse;whiteSpace=wrap;html=1;align=center;fillColor=#dae8fc;strokeColor=#6c8ebf;" vertex="1" parent="1">
          <mxGeometry x="680" y="420" width="100" height="40" as="geometry" />
        </mxCell>
        <mxCell id="ZR8NJ3_Q2HgkCC634JVn-57" value="" style="endArrow=none;html=1;rounded=0;entryX=0;entryY=0.5;entryDx=0;entryDy=0;exitX=1;exitY=1;exitDx=0;exitDy=0;" edge="1" parent="1" source="ZR8NJ3_Q2HgkCC634JVn-3" target="ZR8NJ3_Q2HgkCC634JVn-52">
          <mxGeometry relative="1" as="geometry">
            <mxPoint x="110" y="560" as="sourcePoint" />
            <mxPoint x="270" y="560" as="targetPoint" />
          </mxGeometry>
        </mxCell>
        <mxCell id="ZR8NJ3_Q2HgkCC634JVn-58" value="Precio" style="ellipse;whiteSpace=wrap;html=1;align=center;fillColor=#dae8fc;strokeColor=#6c8ebf;" vertex="1" parent="1">
          <mxGeometry x="680" y="545" width="100" height="40" as="geometry" />
        </mxCell>
        <mxCell id="ZR8NJ3_Q2HgkCC634JVn-59" value="" style="endArrow=none;html=1;rounded=0;entryX=0;entryY=0.5;entryDx=0;entryDy=0;exitX=1;exitY=0.75;exitDx=0;exitDy=0;" edge="1" parent="1" source="ZR8NJ3_Q2HgkCC634JVn-3" target="ZR8NJ3_Q2HgkCC634JVn-58">
          <mxGeometry relative="1" as="geometry">
            <mxPoint x="110" y="560" as="sourcePoint" />
            <mxPoint x="270" y="560" as="targetPoint" />
          </mxGeometry>
        </mxCell>
        <mxCell id="ZR8NJ3_Q2HgkCC634JVn-60" value="" style="endArrow=none;html=1;rounded=0;entryX=0;entryY=0.5;entryDx=0;entryDy=0;exitX=1;exitY=0.5;exitDx=0;exitDy=0;" edge="1" parent="1" source="ZR8NJ3_Q2HgkCC634JVn-3" target="ZR8NJ3_Q2HgkCC634JVn-62">
          <mxGeometry relative="1" as="geometry">
            <mxPoint x="110" y="560" as="sourcePoint" />
            <mxPoint x="680.0000000000205" y="510" as="targetPoint" />
          </mxGeometry>
        </mxCell>
        <mxCell id="ZR8NJ3_Q2HgkCC634JVn-61" value="" style="endArrow=none;html=1;rounded=0;entryX=0;entryY=0.5;entryDx=0;entryDy=0;exitX=1;exitY=0.25;exitDx=0;exitDy=0;" edge="1" parent="1" source="ZR8NJ3_Q2HgkCC634JVn-3" target="ZR8NJ3_Q2HgkCC634JVn-53">
          <mxGeometry relative="1" as="geometry">
            <mxPoint x="110" y="560" as="sourcePoint" />
            <mxPoint x="270" y="560" as="targetPoint" />
          </mxGeometry>
        </mxCell>
        <mxCell id="ZR8NJ3_Q2HgkCC634JVn-62" value="Matricula" style="ellipse;whiteSpace=wrap;html=1;align=center;fontStyle=4;fillColor=#dae8fc;strokeColor=#6c8ebf;" vertex="1" parent="1">
          <mxGeometry x="680" y="480" width="100" height="40" as="geometry" />
        </mxCell>
        <mxCell id="ZR8NJ3_Q2HgkCC634JVn-63" value="Frenos u otros" style="ellipse;whiteSpace=wrap;html=1;align=center;fillColor=#dae8fc;strokeColor=#6c8ebf;" vertex="1" parent="1">
          <mxGeometry x="500" y="860" width="100" height="40" as="geometry" />
        </mxCell>
        <mxCell id="ZR8NJ3_Q2HgkCC634JVn-64" value="Cambio de aceite" style="ellipse;whiteSpace=wrap;html=1;align=center;fillColor=#dae8fc;strokeColor=#6c8ebf;" vertex="1" parent="1">
          <mxGeometry x="500" y="790" width="100" height="40" as="geometry" />
        </mxCell>
        <mxCell id="ZR8NJ3_Q2HgkCC634JVn-65" value="Cambio filtro" style="ellipse;whiteSpace=wrap;html=1;align=center;fillColor=#dae8fc;strokeColor=#6c8ebf;" vertex="1" parent="1">
          <mxGeometry x="500" y="720" width="100" height="40" as="geometry" />
        </mxCell>
        <mxCell id="ZR8NJ3_Q2HgkCC634JVn-66" value="" style="endArrow=none;html=1;rounded=0;entryX=0;entryY=0.5;entryDx=0;entryDy=0;exitX=1;exitY=0.5;exitDx=0;exitDy=0;" edge="1" parent="1" source="ZR8NJ3_Q2HgkCC634JVn-40" target="ZR8NJ3_Q2HgkCC634JVn-65">
          <mxGeometry relative="1" as="geometry">
            <mxPoint x="110" y="630" as="sourcePoint" />
            <mxPoint x="270" y="630" as="targetPoint" />
          </mxGeometry>
        </mxCell>
        <mxCell id="ZR8NJ3_Q2HgkCC634JVn-67" value="" style="endArrow=none;html=1;rounded=0;entryX=0;entryY=0.5;entryDx=0;entryDy=0;exitX=1;exitY=0.5;exitDx=0;exitDy=0;" edge="1" parent="1" source="ZR8NJ3_Q2HgkCC634JVn-40" target="ZR8NJ3_Q2HgkCC634JVn-64">
          <mxGeometry relative="1" as="geometry">
            <mxPoint x="110" y="630" as="sourcePoint" />
            <mxPoint x="270" y="630" as="targetPoint" />
          </mxGeometry>
        </mxCell>
        <mxCell id="ZR8NJ3_Q2HgkCC634JVn-68" value="" style="endArrow=none;html=1;rounded=0;entryX=0;entryY=0.5;entryDx=0;entryDy=0;exitX=1;exitY=0.5;exitDx=0;exitDy=0;" edge="1" parent="1" source="ZR8NJ3_Q2HgkCC634JVn-40" target="ZR8NJ3_Q2HgkCC634JVn-63">
          <mxGeometry relative="1" as="geometry">
            <mxPoint x="110" y="630" as="sourcePoint" />
            <mxPoint x="270" y="630" as="targetPoint" />
          </mxGeometry>
        </mxCell>
        <mxCell id="ZR8NJ3_Q2HgkCC634JVn-69" value="CÃ³digo de revisiÃ³n" style="ellipse;whiteSpace=wrap;html=1;align=center;fillColor=#dae8fc;strokeColor=#6c8ebf;" vertex="1" parent="1">
          <mxGeometry x="500" y="660" width="100" height="40" as="geometry" />
        </mxCell>
        <mxCell id="ZR8NJ3_Q2HgkCC634JVn-70" value="" style="endArrow=none;html=1;rounded=0;entryX=1;entryY=0.5;entryDx=0;entryDy=0;exitX=0;exitY=0.5;exitDx=0;exitDy=0;" edge="1" parent="1" source="ZR8NJ3_Q2HgkCC634JVn-69" target="ZR8NJ3_Q2HgkCC634JVn-40">
          <mxGeometry relative="1" as="geometry">
            <mxPoint x="110" y="590" as="sourcePoint" />
            <mxPoint x="270" y="590" as="targetPoint" />
          </mxGeometry>
        </mxCell>
        <mxCell id="ZR8NJ3_Q2HgkCC634JVn-72" value="Codigo" style="ellipse;whiteSpace=wrap;html=1;align=center;fillColor=#dae8fc;strokeColor=#6c8ebf;" vertex="1" parent="1">
          <mxGeometry x="-630" y="910" width="100" height="40" as="geometry" />
        </mxCell>
        <mxCell id="ZR8NJ3_Q2HgkCC634JVn-75" value="" style="endArrow=none;html=1;rounded=0;exitX=0;exitY=0.5;exitDx=0;exitDy=0;entryX=1;entryY=0.5;entryDx=0;entryDy=0;" edge="1" parent="1" source="ZR8NJ3_Q2HgkCC634JVn-85" target="ZR8NJ3_Q2HgkCC634JVn-72">
          <mxGeometry relative="1" as="geometry">
            <mxPoint x="110" y="590" as="sourcePoint" />
            <mxPoint x="270" y="590" as="targetPoint" />
          </mxGeometry>
        </mxCell>
        <mxCell id="ZR8NJ3_Q2HgkCC634JVn-76" value="1:N" style="text;html=1;strokeColor=none;fillColor=none;align=center;verticalAlign=middle;whiteSpace=wrap;rounded=0;" vertex="1" parent="1">
          <mxGeometry x="260" y="520" width="60" height="30" as="geometry" />
        </mxCell>
        <mxCell id="ZR8NJ3_Q2HgkCC634JVn-77" value="1:1" style="text;html=1;strokeColor=none;fillColor=none;align=center;verticalAlign=middle;whiteSpace=wrap;rounded=0;" vertex="1" parent="1">
          <mxGeometry x="-360" y="520" width="60" height="30" as="geometry" />
        </mxCell>
        <mxCell id="ZR8NJ3_Q2HgkCC634JVn-78" value="1:N" style="text;html=1;strokeColor=none;fillColor=none;align=center;verticalAlign=middle;whiteSpace=wrap;rounded=0;" vertex="1" parent="1">
          <mxGeometry x="-10" y="480" width="60" height="30" as="geometry" />
        </mxCell>
        <mxCell id="ZR8NJ3_Q2HgkCC634JVn-79" value="0:N" style="text;html=1;strokeColor=none;fillColor=none;align=center;verticalAlign=middle;whiteSpace=wrap;rounded=0;" vertex="1" parent="1">
          <mxGeometry x="350" y="890" width="60" height="30" as="geometry" />
        </mxCell>
        <mxCell id="ZR8NJ3_Q2HgkCC634JVn-80" value="&lt;div&gt;1:N&lt;/div&gt;&lt;div&gt;&lt;br&gt;&lt;/div&gt;" style="text;html=1;strokeColor=none;fillColor=none;align=center;verticalAlign=middle;whiteSpace=wrap;rounded=0;" vertex="1" parent="1">
          <mxGeometry x="350" y="570" width="60" height="30" as="geometry" />
        </mxCell>
        <mxCell id="ZR8NJ3_Q2HgkCC634JVn-81" value="N:M" style="text;html=1;strokeColor=none;fillColor=none;align=center;verticalAlign=middle;whiteSpace=wrap;rounded=0;" vertex="1" parent="1">
          <mxGeometry x="250" y="765" width="60" height="30" as="geometry" />
        </mxCell>
        <mxCell id="ZR8NJ3_Q2HgkCC634JVn-83" value="1:N" style="text;html=1;strokeColor=none;fillColor=none;align=center;verticalAlign=middle;whiteSpace=wrap;rounded=0;" vertex="1" parent="1">
          <mxGeometry x="360" y="490" width="60" height="30" as="geometry" />
        </mxCell>
        <mxCell id="ZR8NJ3_Q2HgkCC634JVn-84" value="" style="endArrow=none;html=1;rounded=0;exitX=0.5;exitY=1;exitDx=0;exitDy=0;entryX=0;entryY=0.5;entryDx=0;entryDy=0;" edge="1" parent="1" source="ZR8NJ3_Q2HgkCC634JVn-85" target="ZR8NJ3_Q2HgkCC634JVn-37">
          <mxGeometry relative="1" as="geometry">
            <mxPoint x="110" y="570" as="sourcePoint" />
            <mxPoint x="270" y="570" as="targetPoint" />
            <Array as="points">
              <mxPoint x="-400" y="940" />
            </Array>
          </mxGeometry>
        </mxCell>
        <mxCell id="ZR8NJ3_Q2HgkCC634JVn-86" value="" style="endArrow=none;html=1;rounded=0;exitX=0.5;exitY=1;exitDx=0;exitDy=0;" edge="1" parent="1" source="ZR8NJ3_Q2HgkCC634JVn-2" target="ZR8NJ3_Q2HgkCC634JVn-85">
          <mxGeometry relative="1" as="geometry">
            <mxPoint x="-403" y="750" as="sourcePoint" />
            <mxPoint x="310" y="940" as="targetPoint" />
            <Array as="points" />
          </mxGeometry>
        </mxCell>
        <mxCell id="ZR8NJ3_Q2HgkCC634JVn-85" value="dar de alta" style="shape=rhombus;perimeter=rhombusPerimeter;whiteSpace=wrap;html=1;align=center;fillColor=#fff2cc;strokeColor=#d6b656;" vertex="1" parent="1">
          <mxGeometry x="-460" y="900" width="120" height="60" as="geometry" />
        </mxCell>
        <mxCell id="ZR8NJ3_Q2HgkCC634JVn-87" value="1:1" style="text;html=1;strokeColor=none;fillColor=none;align=center;verticalAlign=middle;whiteSpace=wrap;rounded=0;" vertex="1" parent="1">
          <mxGeometry x="260" y="915" width="60" height="30" as="geometry" />
        </mxCell>
        <mxCell id="ZR8NJ3_Q2HgkCC634JVn-88" value="1:N" style="text;html=1;strokeColor=none;fillColor=none;align=center;verticalAlign=middle;whiteSpace=wrap;rounded=0;" vertex="1" parent="1">
          <mxGeometry x="-450" y="570" width="60" height="30" as="geometry" />
        </mxCell>
        <mxCell id="ZR8NJ3_Q2HgkCC634JVn-89" value="N:M" style="text;html=1;strokeColor=none;fillColor=none;align=center;verticalAlign=middle;whiteSpace=wrap;rounded=0;" vertex="1" parent="1">
          <mxGeometry x="-430" y="960" width="60" height="30" as="geometry" />
        </mxCell>
        <mxCell id="ZR8NJ3_Q2HgkCC634JVn-91" value="direccion" style="ellipse;whiteSpace=wrap;html=1;align=center;fillColor=#dae8fc;strokeColor=#6c8ebf;" vertex="1" parent="1">
          <mxGeometry x="-390" y="700" width="100" height="40" as="geometry" />
        </mxCell>
      </root>
    </mxGraphModel>
  </diagram>
</mxfile>
